<svg id="Layer_1" data-name="Layer 1" xmlns="http://www.w3.org/2000/svg" viewBox="0 0 28.35 13.55833"><defs><style>.cls-1{fill:#e12727;}.cls-2{fill:#e55d42;}.cls-3{fill:#cc2322;}.cls-4{fill:#37b34a;}.cls-5{fill:#31a444;}.cls-6{fill:#d1d3d4;}</style></defs><title>1ch</title><path class="cls-1" d="M1.5703,11.54523a.24082.24082,0,0,1,.0242-.45638A8.83972,8.83972,0,0,0,4.75633,9.74369,6.74619,6.74619,0,0,0,6.67095,7.05431c.2789-.59546.75228-1.98436,1.03412-2.58357.39348-.83658,1.53231-1.8,2.51335-.55775.62808.79534.0059,2.50349-.32029,3.16678-.914,1.85857-2.52244,3.91526-4.41983,4.34958A8.76812,8.76812,0,0,1,1.5703,11.54523Z"/><path class="cls-2" d="M4.71565,10.29165A7.78487,7.78487,0,0,0,7.11414,7.41749c.16891-.33692.37993-.86145.60333-1.41676.20924-.52028.417-1.06325.57913-1.363.41349-.76433.71268-.85492.71268-.85492-.65354-.112-1.23434.51615-1.44684.93827-.15341.30474-.36988.8427-.57914,1.363C6.7599,6.6394,6.54,7.15923,6.38,7.50085A6.49829,6.49829,0,0,1,1.98677,11.233,5.43654,5.43654,0,0,0,4.71565,10.29165Z"/><path class="cls-3" d="M9.90553,7.077c.31911-.66372.92747-2.37322.31149-3.17027a1.42105,1.42105,0,0,0-.80686-.57314H9.41c.85618.392.23389,2.56121-.65215,4.20844A6.8815,6.8815,0,0,1,1.5996,11.31961a.2087.2087,0,0,0,.14957.21853,8.41132,8.41132,0,0,0,3.829-.11144C7.43691,10.99407,9.01137,8.93676,9.90553,7.077Z"/><path class="cls-4" d="M9.7558,4.538a.79817.79817,0,0,0-.24214-.43733.69489.69489,0,0,1-.231-.39806c-.01277.483-.84.44154-.84.44154a.48178.48178,0,0,0,.12674-.36548c-.00078-.2571.111-.312.111-.312l-.32523-.00689a.72046.72046,0,0,1-.5068-.21968.792.792,0,0,0,.405-.0202,2.26716,2.26716,0,0,1,1.12992-.12744,1.48347,1.48347,0,0,1,1.09773,1.24487c-.05022-.10323-.2338-.12407-.39656-.218A.97027.97027,0,0,1,9.867,3.8961.869.869,0,0,1,9.7558,4.538Z"/><path class="cls-5" d="M10.48108,4.33738a1.51488,1.51488,0,0,0-.99525-1.21821l.00054-.00334a.89523.89523,0,0,1,.29181-.73531.91164.91164,0,0,1,.43388-.244s.14106-.17-.12171-.28972a1.26977,1.26977,0,0,0-.80787,1.22835l.00069.0051c.12562.63027-.55758.78834-.55758.78834a.63694.63694,0,0,1-.04516-.40192.162.162,0,0,0-.04823.049.45047.45047,0,0,0-.06279.263.48182.48182,0,0,1-.12674.36548s.82727.04148.84-.44154a.69476.69476,0,0,0,.231.39806A.79811.79811,0,0,1,9.7558,4.538.86908.86908,0,0,0,9.867,3.8961a.97062.97062,0,0,0,.21752.22333C10.24729,4.21331,10.43087,4.23415,10.48108,4.33738Z"/><path class="cls-6" d="M9.79261,11.54523a.24082.24082,0,0,1,.0242-.45638,8.83972,8.83972,0,0,0,3.16183-1.34516,6.74619,6.74619,0,0,0,1.91462-2.68938c.2789-.59546.75228-1.98436,1.03412-2.58357.39348-.83658,1.53231-1.8,2.51335-.55775.62808.79534.0059,2.50349-.32029,3.16678-.914,1.85857-2.52244,3.91526-4.41983,4.34958A8.76812,8.76812,0,0,1,9.79261,11.54523Z"/><path class="cls-6" d="M12.938,10.29165a7.78487,7.78487,0,0,0,2.39848-2.87416c.16891-.33692.37993-.86145.60333-1.41676.20924-.52028.417-1.06325.57913-1.363.41349-.76433.71268-.85492.71268-.85492-.65354-.112-1.23434.51615-1.44684.93827-.15341.30474-.36988.8427-.57914,1.363-.22339.55531-.44329,1.07514-.60332,1.41676a6.49829,6.49829,0,0,1-4.3932,3.73218A5.43654,5.43654,0,0,0,12.938,10.29165Z"/><path class="cls-6" d="M18.12784,7.077c.31911-.66372.92747-2.37322.31149-3.17027a1.42105,1.42105,0,0,0-.80686-.57314h-.00011c.85618.392.23389,2.56121-.65215,4.20844a6.8815,6.8815,0,0,1-7.15829,3.77758.2087.2087,0,0,0,.14957.21853,8.41132,8.41132,0,0,0,3.829-.11144C15.65923,10.99407,17.23369,8.93676,18.12784,7.077Z"/><path class="cls-6" d="M17.97811,4.538a.79817.79817,0,0,0-.24214-.43733.69489.69489,0,0,1-.231-.39806c-.01277.483-.84.44154-.84.44154a.48178.48178,0,0,0,.12674-.36548c-.00078-.2571.111-.312.111-.312l-.32523-.00689a.72046.72046,0,0,1-.5068-.21968.792.792,0,0,0,.405-.0202,2.26716,2.26716,0,0,1,1.12992-.12744A1.48347,1.48347,0,0,1,18.7034,4.33738c-.05022-.10323-.2338-.12407-.39656-.218a.97027.97027,0,0,1-.21752-.22333A.869.869,0,0,1,17.97811,4.538Z"/><path class="cls-6" d="M18.7034,4.33738a1.51488,1.51488,0,0,0-.99525-1.21821l.00054-.00334a.89523.89523,0,0,1,.29181-.73531.91164.91164,0,0,1,.43388-.244s.14106-.17-.12171-.28972a1.26977,1.26977,0,0,0-.80787,1.22835l.00069.0051c.12562.63027-.55758.78834-.55758.78834a.63694.63694,0,0,1-.04516-.40192.162.162,0,0,0-.04823.049.45047.45047,0,0,0-.06279.263.48182.48182,0,0,1-.12674.36548s.82727.04148.84-.44154a.69476.69476,0,0,0,.231.39806.79811.79811,0,0,1,.24213.43733.86908.86908,0,0,0,.11121-.64194.97062.97062,0,0,0,.21752.22333C18.4696,4.21331,18.65319,4.23415,18.7034,4.33738Z"/><path class="cls-6" d="M18.01493,11.54523a.24082.24082,0,0,1,.0242-.45638A8.83972,8.83972,0,0,0,21.201,9.74369a6.74619,6.74619,0,0,0,1.91462-2.68938c.2789-.59546.75228-1.98436,1.03412-2.58357.39348-.83658,1.53231-1.8,2.51335-.55775.62808.79534.0059,2.50349-.32029,3.16678-.914,1.85857-2.52244,3.91526-4.41983,4.34958A8.76812,8.76812,0,0,1,18.01493,11.54523Z"/><path class="cls-6" d="M21.16029,10.29165a7.78487,7.78487,0,0,0,2.39848-2.87416c.16891-.33692.37993-.86145.60333-1.41676.20924-.52028.417-1.06325.57913-1.363.41349-.76433.71268-.85492.71268-.85492-.65354-.112-1.23434.51615-1.44684.93827-.15341.30474-.36988.8427-.57914,1.363-.22339.55531-.44329,1.07514-.60332,1.41676A6.49829,6.49829,0,0,1,18.4314,11.233,5.43654,5.43654,0,0,0,21.16029,10.29165Z"/><path class="cls-6" d="M26.35016,7.077c.31911-.66372.92747-2.37322.31149-3.17027a1.42105,1.42105,0,0,0-.80686-.57314h-.00011c.85618.392.23389,2.56121-.65215,4.20844a6.8815,6.8815,0,0,1-7.15829,3.77758.2087.2087,0,0,0,.14957.21853,8.41132,8.41132,0,0,0,3.829-.11144C23.88155,10.99407,25.456,8.93676,26.35016,7.077Z"/><path class="cls-6" d="M26.20043,4.538a.79817.79817,0,0,0-.24214-.43733.69489.69489,0,0,1-.231-.39806c-.01277.483-.84.44154-.84.44154A.48178.48178,0,0,0,25.014,3.7787c-.00078-.2571.111-.312.111-.312l-.32523-.00689a.72046.72046,0,0,1-.5068-.21968.792.792,0,0,0,.405-.0202A2.26716,2.26716,0,0,1,25.828,3.09252a1.48347,1.48347,0,0,1,1.09773,1.24487c-.05022-.10323-.2338-.12407-.39656-.218a.97027.97027,0,0,1-.21752-.22333A.869.869,0,0,1,26.20043,4.538Z"/><path class="cls-6" d="M26.92572,4.33738a1.51488,1.51488,0,0,0-.99525-1.21821l.00054-.00334a.89523.89523,0,0,1,.29181-.73531.91164.91164,0,0,1,.43388-.244s.14106-.17-.12171-.28972a1.26977,1.26977,0,0,0-.80787,1.22835l.00069.0051c.12562.63027-.55758.78834-.55758.78834a.63694.63694,0,0,1-.04516-.40192.162.162,0,0,0-.04823.049.45047.45047,0,0,0-.06279.263.48182.48182,0,0,1-.12674.36548s.82727.04148.84-.44154a.69476.69476,0,0,0,.231.39806.79811.79811,0,0,1,.24213.43733.86908.86908,0,0,0,.11121-.64194.97061.97061,0,0,0,.21752.22333C26.69192,4.21331,26.87551,4.23415,26.92572,4.33738Z"/></svg>